<?xml version="1.0" encoding="utf-8"?>
<!-- Generator: Adobe Illustrator 26.3.1, SVG Export Plug-In . SVG Version: 6.00 Build 0)  -->
<svg version="1.1" id="_x2014_ÎÓÈ_x5F_1" xmlns="http://www.w3.org/2000/svg" xmlns:xlink="http://www.w3.org/1999/xlink"
	 x="0px" y="0px" width="500px" height="500px" viewBox="0 0 500 500" enable-background="new 0 0 500 500" xml:space="preserve">
<g>
	<path fill="#FFFFFF" d="M383.38,160.092H165.546l-4.339-12.621c-4.913-11.533-12.174-20.312-28.99-20.312h-19.018
		c-7.044,0-12.999,5.522-13.193,12.563c-0.202,7.304,5.658,13.288,12.917,13.288h16.226c6.17,0,11.521,4.266,12.895,10.281
		l27.742,121.427c0.202,0.886,0.472,1.758,0.807,2.602c3.548,8.94,7.862,14.226,15.607,17.481c2.372,0.997,4.933,1.469,7.507,1.469
		h183.828c7.04,0,12.991-5.518,13.186-12.555c0.202-7.302-5.658-13.288-12.917-13.288L195.92,280.42l-2.604-5.93l191.34-25.154
		c8.931-1.434,15.091-8.463,15.343-17.504v-55.119C399.964,167.507,392.578,160.128,383.38,160.092z M187.241,254.562
		l-17.357-76.002h43.567l8.678,70.795L187.241,254.562z M236.898,247.401l-8.678-68.84h44.765l4.339,64.635L236.898,247.401z
		 M328.183,236.602l-36.083,4.637l-4.339-62.678h40.423v58.041H328.183z M381.532,231.121l-38.576,3.526V178.56h38.576V231.121z"/>
	<path fill="#FFFFFF" d="M220.176,321.755c-14.108,0-25.545,11.436-25.545,25.541c0,14.108,11.436,25.545,25.545,25.545
		c14.107,0,25.543-11.436,25.543-25.545C245.718,333.191,234.282,321.755,220.176,321.755z"/>
	<path fill="#FFFFFF" d="M351.955,321.755c-14.108,0-25.545,11.436-25.545,25.541c0,14.108,11.436,25.545,25.545,25.545
		c14.107,0,25.543-11.436,25.543-25.545C377.498,333.191,366.062,321.755,351.955,321.755z"/>
</g>
</svg>
